<?xml version="1.0" standalone="no"?>
<!DOCTYPE svg PUBLIC "-//W3C//DTD SVG 20010904//EN"
 "http://www.w3.org/TR/2001/REC-SVG-20010904/DTD/svg10.dtd">
<svg version="1.0" xmlns="http://www.w3.org/2000/svg"
 width="652.000000pt" height="652.000000pt" viewBox="0 0 652.000000 652.000000"
 preserveAspectRatio="xMidYMid meet">
<metadata>
Created by potrace 1.11, written by Peter Selinger 2001-2013
</metadata>
<g transform="translate(0.000000,652.000000) scale(0.100000,-0.100000)"
fill="#000000" stroke="none">
<path d="M2965 6144 c-431 -47 -811 -171 -1175 -382 -102 -60 -302 -199 -374
-262 -106 -91 -152 -134 -239 -224 -400 -411 -669 -931 -772 -1491 -16 -87
-25 -149 -30 -205 -3 -36 -8 -87 -11 -115 -6 -65 -6 -369 0 -420 3 -22 10 -87
16 -145 24 -219 86 -470 174 -695 398 -1018 1332 -1729 2412 -1835 195 -19
498 -16 654 6 153 22 297 52 470 99 46 12 228 77 305 110 157 65 400 200 522
289 205 151 171 124 300 241 73 66 129 125 278 289 29 31 139 182 195 266 215
325 378 747 435 1127 9 59 18 122 21 138 10 53 12 507 4 588 -19 178 -39 292
-76 442 -66 268 -184 551 -326 785 -21 36 -44 74 -51 85 -20 33 -203 277 -244
324 -21 25 -89 96 -152 158 -479 478 -1110 772 -1786 831 -141 13 -420 11
-550 -4z"/>
</g>
</svg>
